<svg version="1.1" xmlns="http://www.w3.org/2000/svg" xmlns:xlink="http://www.w3.org/1999/xlink" width="430" height="600"><defs/><g><g><path fill="#ffffff" stroke="none" paint-order="stroke fill markers" d=" M 0 0 L 430 0 L 430 600 L 0 600 L 0 0 Z Z"/></g><g><path fill="rgb(0,0,0)" stroke="none" paint-order="stroke fill markers" d=" M 225 20 L 235 20 L 235 580 L 225 580 L 225 20 Z Z" fill-opacity="0"/></g><g><path fill="none" stroke="#000000" paint-order="fill stroke markers" d=" M 230 20 L 230 580" stroke-miterlimit="10" stroke-width="2" stroke-dasharray="8,6"/></g><g><path fill="rgb(0,0,0)" stroke="none" paint-order="stroke fill markers" d=" M 50 20 L 130 20 L 130 44 L 50 44 L 50 20 Z Z" fill-opacity="0"/></g><g><g><text fill="black" stroke="none" font-family="Barlow, sans-serif" font-size="15px" font-style="normal" font-weight="normal" text-decoration="undefined" x="0" y="13.5" text-anchor="start" dominant-baseline="alphabetic" transform="matrix(1 0 0 1 54 24)">Client</text></g></g><g><path fill="rgb(0,0,0)" stroke="none" paint-order="stroke fill markers" d=" M 320 20 L 400 20 L 400 44 L 320 44 L 320 20 Z Z" fill-opacity="0"/></g><g><g><text fill="black" stroke="none" font-family="Barlow, sans-serif" font-size="15px" font-style="normal" font-weight="normal" text-decoration="undefined" x="0" y="13.5" text-anchor="start" dominant-baseline="alphabetic" transform="matrix(1 0 0 1 324 24)">Server</text></g></g><g><path fill="#ffffff" stroke="#000000" paint-order="fill stroke markers" d=" M 80.5 60 L 80.5 60 L 80.5 60 A 16.5 16.5 0 0 1 97 76.5 L 97 76.5 L 97 76.5 A 16.5 16.5 0 0 1 80.5 93 L 80.5 93 L 80.5 93 A 16.5 16.5 0 0 1 64 76.5 L 64 76.5 L 64 76.5 A 16.5 16.5 0 0 1 80.5 60 Z" stroke-miterlimit="10" stroke-width="3" stroke-dasharray=""/></g><g><path fill="#000000" stroke="none" paint-order="stroke fill markers" d=" M 88.255 76.5 A 7.755 7.755 0 1 1 88.25499612250033 76.49224500129249 Z"/></g><g/><g><path fill="#ffffff" stroke="#000000" paint-order="fill stroke markers" d=" M 20 130 L 140 130 L 140 190 L 20 190 L 20 130 Z Z" stroke-miterlimit="10" stroke-width="3" stroke-dasharray=""/></g><g><g><text fill="black" stroke="none" font-family="Barlow, sans-serif" font-size="15px" font-style="normal" font-weight="normal" text-decoration="undefined" x="9.699691772460938" y="13.5" text-anchor="start" dominant-baseline="alphabetic" transform="matrix(1 0 0 1 28 152.5)">send request</text></g></g><g><path fill="#ffffff" stroke="#000000" paint-order="fill stroke markers" d=" M 230.5 230 L 230.5 230 L 230.5 230 A 16.5 16.5 0 0 1 247 246.5 L 247 246.5 L 247 246.5 A 16.5 16.5 0 0 1 230.5 263 L 230.5 263 L 230.5 263 A 16.5 16.5 0 0 1 214 246.5 L 214 246.5 L 214 246.5 A 16.5 16.5 0 0 1 230.5 230 Z" stroke-miterlimit="10" stroke-width="3" stroke-dasharray=""/></g><g/><g><path fill="#ffffff" stroke="#000000" paint-order="fill stroke markers" d=" M 270 300 L 390 300 L 390 360 L 270 360 L 270 300 Z Z" stroke-miterlimit="10" stroke-width="3" stroke-dasharray=""/></g><g><g><text fill="black" stroke="none" font-family="Barlow, sans-serif" font-size="15px" font-style="normal" font-weight="normal" text-decoration="undefined" x="3.7071533203125" y="13.5" text-anchor="start" dominant-baseline="alphabetic" transform="matrix(1 0 0 1 278 322.5)">handle request</text></g></g><g><path fill="#ffffff" stroke="#000000" paint-order="fill stroke markers" d=" M 330.5 400 L 330.5 400 L 330.5 400 A 16.5 16.5 0 0 1 347 416.5 L 347 416.5 L 347 416.5 A 16.5 16.5 0 0 1 330.5 433 L 330.5 433 L 330.5 433 A 16.5 16.5 0 0 1 314 416.5 L 314 416.5 L 314 416.5 A 16.5 16.5 0 0 1 330.5 400 Z" stroke-miterlimit="10" stroke-width="3" stroke-dasharray=""/></g><g/><g><path fill="#ffffff" stroke="#000000" paint-order="fill stroke markers" d=" M 250 470 L 410 470 L 410 482 L 250 482 L 250 470 Z Z" stroke-miterlimit="10" stroke-width="3" stroke-dasharray=""/></g><g><path fill="#ffffff" stroke="#000000" paint-order="fill stroke markers" d=" M 330.5 520 L 330.5 520 L 330.5 520 A 16.5 16.5 0 0 1 347 536.5 L 347 536.5 L 347 536.5 A 16.5 16.5 0 0 1 330.5 553 L 330.5 553 L 330.5 553 A 16.5 16.5 0 0 1 314 536.5 L 314 536.5 L 314 536.5 A 16.5 16.5 0 0 1 330.5 520 Z" stroke-miterlimit="10" stroke-width="3" stroke-dasharray=""/></g><g/><g><path fill="none" stroke="#000000" paint-order="fill stroke markers" d=" M 80.5 93 L 80.5 130" stroke-miterlimit="10" stroke-width="2" stroke-dasharray=""/></g><g><path fill="#000000" stroke="none" paint-order="stroke fill markers" d=" M 80.5 130 L 76.59504634794197 121.89128018887823 L 84.40495365205803 121.89128018887823 Z"/></g><g><path fill="none" stroke="#000000" paint-order="fill stroke markers" d=" M 80 190 L 80 200 Q 80 210 90 210 L 220.5 210 Q 230.5 210 230.5 220 L 230.5 230" stroke-miterlimit="10" stroke-width="2" stroke-dasharray=""/></g><g><path fill="#000000" stroke="none" paint-order="stroke fill markers" d=" M 230.5 230 L 226.595046347942 221.89128018887823 L 234.404953652058 221.89128018887823 Z"/></g><g><path fill="none" stroke="#000000" paint-order="fill stroke markers" d=" M 230.5 263 L 230.5 272.25 Q 230.5 281.5 239.75 281.5 L 320.75 281.5 Q 330 281.5 330 290.75 L 330 300" stroke-miterlimit="10" stroke-width="2" stroke-dasharray=""/></g><g><path fill="#000000" stroke="none" paint-order="stroke fill markers" d=" M 330 300 L 326.095046347942 291.8912801888782 L 333.904953652058 291.8912801888782 Z"/></g><g><path fill="none" stroke="#000000" paint-order="fill stroke markers" d=" M 330.5 360 L 330.5 400" stroke-miterlimit="10" stroke-width="2" stroke-dasharray=""/></g><g><path fill="#000000" stroke="none" paint-order="stroke fill markers" d=" M 330.5 400 L 326.595046347942 391.8912801888782 L 334.404953652058 391.8912801888782 Z"/></g><g><path fill="none" stroke="#000000" paint-order="fill stroke markers" d=" M 330.5 433 L 330.5 470" stroke-miterlimit="10" stroke-width="2" stroke-dasharray=""/></g><g><path fill="#000000" stroke="none" paint-order="stroke fill markers" d=" M 330.5 470 L 326.595046347942 461.8912801888782 L 334.404953652058 461.8912801888782 Z"/></g><g><path fill="none" stroke="#000000" paint-order="fill stroke markers" d=" M 330.5 482 L 330.5 520" stroke-miterlimit="10" stroke-width="2" stroke-dasharray=""/></g><g><path fill="#000000" stroke="none" paint-order="stroke fill markers" d=" M 330.5 520 L 326.595046347942 511.8912801888782 L 334.404953652058 511.8912801888782 Z"/></g><g><path fill="none" stroke="rgb(0, 161, 255)" paint-order="fill stroke markers" d=" M -100000000 -100000000 L -100000000 -100000000 L -100000000 -100000000 L -100000000 -100000000 L -100000000 -100000000 Z" stroke-miterlimit="10" stroke-dasharray=""/></g><g><path fill="white" stroke="rgb(0, 161, 255)" paint-order="fill stroke markers" d=" M -100000005 -100000005 L -99999995 -100000005 L -99999995 -99999995 L -100000005 -99999995 L -100000005 -100000005 Z Z" stroke-miterlimit="10" stroke-dasharray=""/></g><g><path fill="white" stroke="rgb(0, 161, 255)" paint-order="fill stroke markers" d=" M -100000005 -100000005 L -99999995 -100000005 L -99999995 -99999995 L -100000005 -99999995 L -100000005 -100000005 Z Z" stroke-miterlimit="10" stroke-dasharray=""/></g><g><path fill="white" stroke="rgb(0, 161, 255)" paint-order="fill stroke markers" d=" M -100000005 -100000005 L -99999995 -100000005 L -99999995 -99999995 L -100000005 -99999995 L -100000005 -100000005 Z Z" stroke-miterlimit="10" stroke-dasharray=""/></g><g><path fill="white" stroke="rgb(0, 161, 255)" paint-order="fill stroke markers" d=" M -100000005 -100000005 L -99999995 -100000005 L -99999995 -99999995 L -100000005 -99999995 L -100000005 -100000005 Z Z" stroke-miterlimit="10" stroke-dasharray=""/></g><g><path fill="white" stroke="rgb(0, 161, 255)" paint-order="fill stroke markers" d=" M -100000005 -100000005 L -99999995 -100000005 L -99999995 -99999995 L -100000005 -99999995 L -100000005 -100000005 Z Z" stroke-miterlimit="10" stroke-dasharray=""/></g><g><path fill="white" stroke="rgb(0, 161, 255)" paint-order="fill stroke markers" d=" M -100000005 -100000005 L -99999995 -100000005 L -99999995 -99999995 L -100000005 -99999995 L -100000005 -100000005 Z Z" stroke-miterlimit="10" stroke-dasharray=""/></g><g><path fill="white" stroke="rgb(0, 161, 255)" paint-order="fill stroke markers" d=" M -100000005 -100000005 L -99999995 -100000005 L -99999995 -99999995 L -100000005 -99999995 L -100000005 -100000005 Z Z" stroke-miterlimit="10" stroke-dasharray=""/></g><g><path fill="white" stroke="rgb(0, 161, 255)" paint-order="fill stroke markers" d=" M -100000005 -100000005 L -99999995 -100000005 L -99999995 -99999995 L -100000005 -99999995 L -100000005 -100000005 Z Z" stroke-miterlimit="10" stroke-dasharray=""/></g></g></svg>
